#N canvas 601 106 644 425 10;
#X obj 13 312 cnv 15 600 100 empty empty empty 20 12 0 14 -233017 -66577
0;
#X obj 13 270 cnv 15 600 30 empty empty empty 20 12 0 14 -261234 -66577
0;
#X obj 368 205 cnv 15 100 60 empty empty empty 20 12 0 14 -204786 -66577
0;
#X obj 395 60 cnv 15 100 60 empty empty empty 20 12 0 14 -195568 -66577
0;
#N canvas 0 50 450 300 gemwin 0;
#X obj 132 136 gemwin;
#X obj 67 89 outlet;
#X obj 67 10 inlet;
#X obj 67 41 route create;
#X msg 67 70 set destroy;
#X msg 142 68 set create;
#X msg 132 112 create \, 1;
#X msg 198 112 destroy;
#X connect 2 0 3 0;
#X connect 3 0 4 0;
#X connect 3 0 6 0;
#X connect 3 1 5 0;
#X connect 3 1 7 0;
#X connect 4 0 1 0;
#X connect 5 0 1 0;
#X connect 6 0 0 0;
#X connect 7 0 0 0;
#X restore 400 99 pd gemwin;
#X msg 400 80 destroy;
#X text 396 59 Create window:;
#X obj 124 39 gemhead;
#X obj 124 329 pix_texture;
#X obj 124 68 pix_video;
#X obj 124 278 pix_share_write test 320 240 RGBA;
#X obj 124 105 pix_resize 320 240;
#X obj 378 216 pix_gray;
#X obj 378 278 pix_share_write 12 320 240 RGBA;
#X obj 124 371 rectangle 2 1.5;
#X obj 124 351 translateXYZ 0 2 0;
#X obj 378 329 pix_texture;
#X obj 378 371 rectangle 2 1.5;
#X obj 378 351 translateXYZ 0 -2 0;
#X obj 378 185 separator;
#X obj 124 180 separator;
#X obj 378 238 pix_invert;
#X text 202 69 grab video from webcam;
#X text 464 223 some proessing;
#X text 28 392 draw pixes on Gem's window;
#X text 23 278 share pixes;
#X text 121 17 Send pixes to openFrameworks;
#X connect 4 0 5 0;
#X connect 5 0 4 0;
#X connect 7 0 9 0;
#X connect 8 0 15 0;
#X connect 9 0 11 0;
#X connect 10 0 8 0;
#X connect 11 0 19 0;
#X connect 11 0 20 0;
#X connect 12 0 21 0;
#X connect 13 0 16 0;
#X connect 15 0 14 0;
#X connect 16 0 18 0;
#X connect 18 0 17 0;
#X connect 19 0 12 0;
#X connect 20 0 10 0;
#X connect 21 0 13 0;
