#N canvas 602 240 500 300 10;
#X obj 33 56 cnv 15 440 220 empty empty empty 20 12 0 14 -228992 -66577
0;
#X obj 68 203 cnv 15 100 60 empty empty empty 20 12 0 14 -195568 -66577
0;
#N canvas 0 50 450 300 gemwin 0;
#X obj 132 136 gemwin;
#X obj 67 89 outlet;
#X obj 67 10 inlet;
#X obj 67 41 route create;
#X msg 67 70 set destroy;
#X msg 142 68 set create;
#X msg 132 112 create \, 1;
#X msg 198 112 destroy;
#X connect 2 0 3 0;
#X connect 3 0 4 0;
#X connect 3 0 6 0;
#X connect 3 1 5 0;
#X connect 3 1 7 0;
#X connect 4 0 1 0;
#X connect 5 0 1 0;
#X connect 6 0 0 0;
#X connect 7 0 0 0;
#X restore 73 242 pd gemwin;
#X msg 73 223 destroy;
#X text 69 202 Create window:;
#X obj 56 83 cnv 15 400 60 empty empty empty 20 12 0 14 -24198 -66577
0;
#X obj 58 63 gemhead;
#X obj 58 153 pix_texture;
#X obj 58 118 pix_share_read test 320 240 4;
#X obj 58 174 rectangle 4 3;
#X text 63 86 the shared memory name or id should be the same as in
openFrameworks;
#X text 51 20 Receive pixes from openFrameworks;
#X connect 2 0 3 0;
#X connect 3 0 2 0;
#X connect 6 0 8 0;
#X connect 7 0 9 0;
#X connect 8 0 7 0;
